<svg aria-hidden="true" style="position: absolute; width: 0; height: 0; overflow: hidden;" version="1.1" xmlns="http://www.w3.org/2000/svg" xmlns:xlink="http://www.w3.org/1999/xlink">
<defs>
<symbol id="icon-attachment" viewBox="0 0 20 20">
<path d="M5.602 19.8c-1.293 0-2.504-0.555-3.378-1.44-1.695-1.716-2.167-4.711 0.209-7.116 1.391-1.408 6.966-7.053 9.748-9.87 0.988-1 2.245-1.387 3.448-1.060 1.183 0.32 2.151 1.301 2.468 2.498 0.322 1.22-0.059 2.493-1.046 3.493l-9.323 9.44c-0.532 0.539-1.134 0.858-1.738 0.922-0.599 0.064-1.17-0.13-1.57-0.535-0.724-0.736-0.828-2.117 0.378-3.337l6.548-6.63c0.269-0.272 0.705-0.272 0.974 0s0.269 0.714 0 0.986l-6.549 6.631c-0.566 0.572-0.618 1.119-0.377 1.364 0.106 0.106 0.266 0.155 0.451 0.134 0.283-0.029 0.606-0.216 0.909-0.521l9.323-9.439c0.64-0.648 0.885-1.41 0.69-2.145-0.192-0.725-0.778-1.318-1.493-1.513-0.726-0.197-1.48 0.052-2.12 0.7-2.782 2.818-8.356 8.462-9.748 9.87-1.816 1.839-1.381 3.956-0.209 5.143 1.173 1.187 3.262 1.629 5.079-0.212l9.748-9.87c0.269-0.272 0.705-0.272 0.974 0s0.269 0.714 0 0.987l-9.748 9.87c-1.149 1.162-2.436 1.65-3.648 1.65z"></path>
</symbol>
<symbol id="icon-funnel" viewBox="0 0 20 20">
<path d="M10 1c-4.908 0-8 1.512-8 3.001v2c0 0.918 6 6 6 6v6c-0.001 0.684 1 1 2 1s2.001-0.316 2-1v-6c0 0 6-5.082 6-6v-2c0-1.489-3.092-3.001-8-3.001zM10 6.123c-3.591-0.001-6.138-1.333-6.138-1.831-0.002-0.495 2.548-1.831 6.138-1.829 3.59-0.002 6.14 1.334 6.138 1.828 0 0.499-2.547 1.831-6.138 1.832z"></path>
</symbol>
<symbol id="icon-new-message" viewBox="0 0 20 20">
<path d="M18.174 1.826c-1.102-1.102-2.082-0.777-2.082-0.777l-8.639 8.632-1.453 4.319 4.317-1.454 8.634-8.638c0 0 0.324-0.98-0.777-2.082zM10.605 11.605l-0.471 0.47-1.473 0.5c-0.104-0.24-0.234-0.477-0.498-0.74s-0.5-0.394-0.74-0.498l0.5-1.473 0.471-0.47c0 0 0.776-0.089 1.537 0.673 0.762 0.761 0.674 1.538 0.674 1.538zM16 17h-13v-13h5l2-2h-7c-1.1 0-2 0.9-2 2v13c0 1.1 0.9 2 2 2h13c1.1 0 2-0.9 2-2v-7l-2 2v5z"></path>
</symbol>
<symbol id="icon-unread" viewBox="0 0 20 20">
<path d="M17 3c-1.104 0-2 0.895-2 2s0.896 2 2 2 2-0.895 2-2c0-1.105-0.896-2-2-2zM12.5 4h-11c-0.276 0-0.5 0.224-0.5 0.5v1c0 0.276 0.224 0.5 0.5 0.5h11c0.276 0 0.5-0.224 0.5-0.5v-1c0-0.276-0.224-0.5-0.5-0.5zM12.5 9h-11c-0.276 0-0.5 0.224-0.5 0.5v1c0 0.276 0.224 0.5 0.5 0.5h11c0.276 0 0.5-0.224 0.5-0.5v-1c0-0.276-0.224-0.5-0.5-0.5zM12.5 14h-11c-0.276 0-0.5 0.224-0.5 0.5v1c0 0.276 0.224 0.5 0.5 0.5h11c0.276 0 0.5-0.224 0.5-0.5v-1c0-0.276-0.224-0.5-0.5-0.5z"></path>
</symbol>
</defs>
</svg>
